<svg xmlns="http://www.w3.org/2000/svg" width="256" height="256"><path fill-opacity=".016" d="M0 128.004v128.004l128.25-.254 128.25-.254.254-127.75L257.008 0H0v128.004m.485.496c0 70.4.119 99.053.265 63.672.146-35.38.146-92.98 0-128C.604 29.153.485 58.1.485 128.5" fill-rule="evenodd"/><path fill-opacity=".123" d="M11.203 100.586C3.743 104.303-1.114 112 4 112c1.1 0 2-.434 2-.965 0-1.37 6-8.035 7.234-8.035.625 0 .828 1.76.519 4.5l-.507 4.5h3.363c2.85 0 3.571-.496 4.721-3.25.746-1.787 1.672-4.937 2.058-7l.703-3.75h-3.849c-2.136 0-6.16 1.151-9.039 2.586m157.727.164c-4.803 2.433-9.93 7.802-9.93 10.398 0 1.859 3.865.707 5.379-1.603 1.967-3.002 5.686-6.545 6.871-6.545.48 0 .569 2.025.198 4.5l-.675 4.5h3.6c3.174 0 3.774-.417 5.073-3.525.81-1.938 1.766-5.088 2.125-7l.652-3.475h-3.932c-2.307 0-6.176 1.137-9.361 2.75m-51.707-.193c-2.699 1.89-2.854 4.562-.394 6.788 2.506 2.268 4.764 2.075 6.614-.568 2.004-2.86 1.965-3.369-.443-5.777s-2.917-2.447-5.777-.443M2 116.531c0 1.513 2.637 3.166 3.567 2.236.264-.265.196-1.22-.15-2.124C4.621 114.57 2 114.484 2 116.531m9.982.719c-1.142 2.634-7.15 25.961-6.752 26.216.148.095 2.107.7 4.351 1.343 2.245.644 7.856 3.896 12.47 7.228 6.467 4.67 9.059 5.989 11.319 5.76 2.994-.303 5.911-3.371 7.084-7.449.578-2.009.29-2.143-4.311-2-3.881.12-6.609-.667-12.834-3.7l-7.905-3.851 1.677-8.649c.923-4.756 1.914-10.56 2.203-12.898l.526-4.25h-3.427c-2.597 0-3.662.544-4.401 2.25m16.272-.018c-3.397 3.618-6.208 10.864-6.232 16.063-.03 6.555 3.02 9.705 9.398 9.705 7.245 0 12.834-5.79 14.481-15 .482-2.698 1.171-3.577 3.002-3.838 2.08-.296 2.285-.047 1.645 2-.402 1.286-.961 4.814-1.242 7.84-.432 4.662-.198 5.785 1.531 7.35 2.631 2.381 8.23 2.38 12.286-.002 4.942-2.903 9.06-11.181 9.648-19.395l.493-6.895-3.13.22c-3.179.223-4.489 1.72-1.506 1.72 3.695 0-2.178 16.618-6.734 19.057-3.657 1.957-4.199-.074-2.477-9.267 2.152-11.481 2.175-11.341-1.957-11.62-3.109-.209-3.665.119-4.563 2.696-1.504 4.315-6.897 5.312-6.897 1.275 0-2.083-1.872-4.141-3.767-4.141-.893 0-1.157.666-.76 1.916.335 1.054.108 2.225-.503 2.602-.679.42-.876 2.106-.507 4.335.781 4.714-2.905 12.496-6.136 12.956-1.62.231-2.26-.278-2.518-2-.566-3.789.973-11.778 3.03-15.725l1.924-3.691-3.19-.215c-2.215-.149-3.84.478-5.319 2.054m51.617-.103c-4.525 4.525-7.706 15.546-5.876 20.359.596 1.567 1.853 3.434 2.794 4.149 2.058 1.563 9.586 1.768 12.266.333 1.91-1.021 5.47-6.778 4.681-7.567-.226-.227-1.903.332-3.726 1.242-3.766 1.878-6.311.982-6.817-2.401-.233-1.556.494-2.316 3.008-3.145 1.823-.602 4.543-2.234 6.045-3.626 4.315-4.002 5.116-10.587 1.374-11.308-1.108-.213-1.595.067-1.207.695 1.041 1.684-2.014 7.832-4.797 9.656-4.085 2.677-4.702 1.422-2.256-4.584l2.269-5.568h-2.996c-1.648 0-3.791.794-4.762 1.765m33.604-.879c-1.483 4.013-4.475 17.555-4.475 20.255 0 5.879 6.428 8.394 12.901 5.046 2.472-1.278 3.063-1.264 5.036.117 2.78 1.947 8.99 1.938 12.775-.019 4.636-2.397 5.672-5.445 4.876-14.349-1.095-12.256-1.116-12.3-6.123-12.3-4.282 0-4.341.049-6.932 5.708-1.437 3.139-3.72 7.159-5.073 8.933-1.353 1.774-2.46 3.69-2.46 4.257 0 1.491-4.059 3.443-5.066 2.436-.468-.468-.211-4.446.573-8.843 2.171-12.188 2.121-12.491-2.038-12.491-1.943 0-3.74.563-3.994 1.25m45.525-.313c0 1.157 2.347 3.063 3.773 3.063 2.349 0 .864-3.492-1.536-3.613-1.231-.063-2.237.185-2.237.55m10.993-.687c-.003.138-1.585 6.506-3.515 14.151-1.93 7.646-3.389 13.978-3.243 14.07.146.093 2.102.695 4.346 1.338 2.245.644 7.827 3.875 12.405 7.181 11.084 8.005 15.487 7.821 17.945-.75l.871-3.035-4.794.148c-3.728.114-6.567-.717-12.765-3.737l-7.97-3.883.788-3.617c1.261-5.786 1.968-10.214 2.613-16.366l.604-5.75h-3.639c-2.002 0-3.642.112-3.646.25m15.733 2.514c-3.32 3.466-5.726 10.149-5.726 15.907 0 6 3.229 9.329 9.05 9.329 7.392 0 12.805-5.338 14.71-14.507.55-2.647 1.49-4.041 3.132-4.649 2.114-.782 2.28-.643 1.672 1.394-.372 1.244-.927 4.962-1.233 8.262-.483 5.199-.283 6.247 1.495 7.85 3.985 3.592 11.676 1.82 16.382-3.774 2.868-3.41 5.792-12.31 5.792-17.629 0-4.916-.038-4.976-3-4.75-3.008.229-4.317 1.803-1.5 1.803 2.463 0 1.779 5.123-1.583 11.849-3.129 6.263-6.304 9.164-8.083 7.385-.601-.601-.379-4.219.604-9.842 2.064-11.801 2.136-11.392-1.99-11.392-3.048 0-3.701.426-4.598 3-.575 1.65-1.415 3-1.866 3-.451 0-1.526.271-2.388.602-1.089.418-1.897-.263-2.645-2.23-1.56-4.104-5.726-6.389-4.478-2.456.335 1.054.166 2.189-.375 2.523-.541.335-.934 2.789-.873 5.455.13 5.692-2.737 11.447-5.934 11.913-1.609.235-2.251-.356-2.716-2.5-.689-3.17 1.768-13.647 3.999-17.057 1.425-2.178 1.365-2.25-1.864-2.25-2.338 0-4.128.827-5.984 2.764m50.789.651c-3.382 4.468-5.876 12.849-5.082 17.082.959 5.111 3.998 7.503 9.533 7.503 5.41 0 8.43-1.83 9.879-5.984 1.232-3.535 1.37-3.469-2.843-1.367-3.915 1.953-6.502.881-6.502-2.694 0-1.771.753-2.523 3.148-3.144 4.532-1.174 9.352-7.022 9.352-11.346 0-2.798-.385-3.465-2-3.465-1.567 0-2 .667-2 3.077 0 3.335-4.621 8.923-7.379 8.923-1.353 0-1.369-.462-.139-3.95.767-2.172 1.88-4.859 2.475-5.97.996-1.862.799-2.01-2.513-1.885-2.757.103-4.138.853-5.929 3.22m-104.115 6.11c-1.532 3.918-1.803 5.678-1 6.495.804.82.474 1.634-1.226 3.023-1.28 1.046-2.041 2.364-1.691 2.929 1.157 1.873 4.446 1.066 6.129-1.503 1.386-2.115 1.513-3.661.773-9.424l-.885-6.895-2.1 5.375" fill-rule="evenodd"/><path fill-opacity=".309" d="M16 99.391c0 .214 1.575.574 3.5.799 1.925.225 3.5.049 3.5-.391 0-.439-1.575-.799-3.5-.799s-3.5.176-3.5.391m158 0c0 .214 1.575.574 3.5.799 1.925.225 3.5.049 3.5-.391 0-.439-1.575-.799-3.5-.799s-3.5.176-3.5.391m-55.187 1.292c.721.289 1.584.253 1.916-.079.332-.332-.258-.568-1.312-.525-1.165.048-1.402.285-.604.604M7.622 135.456C6.73 139.006 6 142.288 6 142.748c0 .461 1.918 1.35 4.262 1.977 2.343.627 7.283 3.427 10.976 6.223 10.547 7.985 14.365 8.654 17.273 3.031 2.431-4.702 1.99-5.53-2.761-5.18-3.335.246-6.036-.557-12.548-3.73l-8.297-4.043.605-3.763c.333-2.07.813-4.775 1.067-6.013.415-2.027.076-2.25-3.436-2.25H9.243l-1.621 6.456m14.916-3.63c-1.272 5.793 3.035 11.178 8.935 11.17 5.768-.007 10.734-4.505 12.968-11.746 1.176-3.815-2.686-2.807-4.884 1.274-1.851 3.437-5.377 5.323-7.5 4.011-.581-.359-1.057-2.201-1.057-4.094 0-3.336-.119-3.441-3.921-3.441-3.489 0-3.988.311-4.541 2.826m28.058-1.981c-.288.465-.814 2.666-1.17 4.89-.538 3.366-.273 4.418 1.581 6.272 3.162 3.162 10.108 2.348 14.074-1.648 3.663-3.691 6.59-10.359 4.547-10.359-.769 0-2.094 1.062-2.944 2.36-2.492 3.803-4.692 5.64-6.755 5.64-1.584 0-1.929-.716-1.929-4 0-3.892-.093-4-3.441-4-1.893 0-3.676.38-3.963.845m24.071-.178c-.367.366-.667 2.412-.667 4.545 0 8.434 9.897 12.045 16.077 5.865 3.417-3.417 3.968-5.706.989-4.112-3.572 1.912-7.031 1.258-8.091-1.53-1.348-3.546-1.238-4.22.775-4.746.963-.251-.537-.509-3.333-.573-2.796-.064-5.384.184-5.75.551m35.366 2.732c-2.825 8.56 3.697 13.502 11.522 8.73 2.981-1.817 3.112-1.817 5.361.004 6.661 5.394 19.494-1.665 17.497-9.624-.537-2.141-1.201-2.509-4.521-2.509-3.754 0-3.892.119-3.892 3.378 0 1.857-.648 3.915-1.44 4.572-2.086 1.732-6.973.92-7.38-1.226-.185-.977.036-1.711.492-1.632 3.234.565 4.224-1.127 2.374-4.052-.787-1.245-1.245-1.171-3.1.5-1.196 1.078-2.563 2.972-3.036 4.21-.578 1.512-1.689 2.25-3.385 2.25-2.279 0-2.525-.39-2.525-4 0-3.887-.096-4-3.422-4-3.006 0-3.56.414-4.545 3.399m55.221 3.851c-1.766 6.537-1.801 7.281-.356 7.565 4.922.968 8.45 2.73 13.722 6.852 10.284 8.041 14.994 8.913 17.891 3.312 2.235-4.323 1.878-4.979-2.717-4.979-3.371 0-13.322-3.652-20.552-7.544-.142-.076.121-2.91.585-6.297l.842-6.159h-7.456l-1.959 7.25m15.376-5c-1.107 4.131-.652 5.882 2.293 8.827 6.413 6.412 16.179 1.995 19.518-8.827 1.187-3.85-2.764-2.778-5.533 1.5-1.734 2.68-3.137 3.75-4.917 3.75-2.157 0-2.533-.503-2.801-3.75-.3-3.625-.438-3.75-4.134-3.75-3.119 0-3.934.414-4.426 2.25m27.345.315c-3.317 8.726 3.501 14.343 12.046 9.924 3.273-1.692 7.979-8.016 7.979-10.721 0-2.635-.949-2.188-4.732 2.232-1.883 2.2-4.289 4-5.346 4-2.003 0-2.254-.676-1.953-5.25.167-2.524-.114-2.75-3.418-2.75-2.945 0-3.778.467-4.576 2.565m24.692-1.898c-.367.366-.667 2.412-.667 4.545 0 8.434 9.897 12.045 16.077 5.865 3.417-3.417 3.968-5.706.989-4.112-3.094 1.655-6.891 1.23-8.031-.899-1.528-2.857-1.262-4.86.715-5.377.963-.251-.537-.509-3.333-.573-2.796-.064-5.384.184-5.75.551" fill-rule="evenodd"/><path fill-opacity=".855" d="M7.095 139.078c-1.476 4.927-1.478 4.921 1.655 4.926 3.067.004 6.078 1.665 15.229 8.402 8.579 6.315 12.326 6.181 14.879-.533.951-2.5.874-2.559-3.192-2.486-2.898.052-6.677-1.124-12.416-3.862-7.307-3.487-8.25-4.244-8.25-6.622 0-2.309-.476-2.74-3.405-3.082-3.173-.37-3.48-.148-4.5 3.257M23 136.673c0 2.968 3.902 5.327 8.813 5.327 4.042 0 5.273-.48 7.687-3 2.766-2.887 2.791-3 .674-3-1.211 0-3.067.541-4.126 1.202-1.453.907-2.491.924-4.236.068-3.664-1.797-8.812-2.145-8.812-.597m100.464.1c-2.166 1.135-3.249 1.218-4.632.354-.993-.62-3.417-1.127-5.388-1.127-3.14 0-3.544.277-3.264 2.241.18 1.262 1.517 2.812 3.062 3.55 2.388 1.141 3.343 1.044 7.406-.754 4.079-1.804 4.866-1.882 6.259-.625 3.291 2.971 9.938 2.428 14.218-1.162l3.279-2.75-3.952-.5c-2.342-.296-4.359-.032-4.952.649-1.983 2.278-5.322 2.529-7.303.548-1.743-1.743-2.147-1.779-4.733-.424m41.533 2.177c-1.359 4.895-1.454 4.721 2.947 5.425 2.518.403 6.224 2.377 10.25 5.461 12.046 9.227 15.776 9.635 18.664 2.037.951-2.5.875-2.559-3.192-2.481-2.885.056-6.703-1.117-12.416-3.813-7.371-3.479-8.25-4.186-8.25-6.627 0-2.38-.453-2.786-3.508-3.143-3.289-.384-3.57-.187-4.495 3.141m19.753-3.14c-4.239.351-4.636 1.304-1.75 4.19 3.219 3.219 10.148 2.746 14.234-.971l3.266-2.97-2.691-.03c-1.48-.016-2.969.421-3.309.971-.87 1.407-4.244 1.245-5.2-.25-.474-.74-2.33-1.123-4.55-.94m-134.57 2.431c.736 5.16 9.453 5.711 14.556.919 2.308-2.167 2.484-2.652 1.066-2.941-.933-.19-2.621.149-3.75.753-1.432.767-2.636.786-3.986.063-1.064-.569-3.345-1.035-5.07-1.035-2.676 0-3.088.328-2.816 2.241m24.835-.991c.069 5.638 13.129 7.087 15.973 1.772 1.502-2.806 1.268-3.096-1.488-1.84-1.878.855-3.134.85-5.047-.021-3.432-1.564-9.457-1.507-9.438.089m132.985.523c0 2.95 2.762 4.699 7.235 4.582 3.092-.081 4.675-.825 7.12-3.344l3.145-3.241-3 .68c-3.479.787-4.501.783-10.25-.047-3.777-.545-4.25-.392-4.25 1.37m25.015-.523c.069 5.638 13.129 7.087 15.973 1.772 1.503-2.808 1.293-3.016-1.917-1.897-2.03.708-3.545.692-4.934-.052-2.807-1.502-9.141-1.379-9.122.177" fill-rule="evenodd"/></svg>